<svg width="952" height="184" viewBox="0 0 952 184" fill="none" xmlns="http://www.w3.org/2000/svg">
<path d="M32.1988 120.597C33.6424 119.789 41.2911 114.89 48.6866 110.749C49.6254 110.293 50.6553 110.055 51.6996 110.051C52.7438 110.047 53.7755 110.278 54.7176 110.727C55.6598 111.177 56.4881 111.832 57.1409 112.644C57.7938 113.457 58.2543 114.406 58.4881 115.421C68.1123 144.182 99.7961 146.556 116.74 130.572L108.357 125.521C102.911 122.314 102.987 117.239 108.559 114.234L149.335 92.1639C154.882 89.159 159.466 91.8357 159.466 98.1486V144.107C159.466 150.42 155.059 152.945 149.589 149.763L140.826 144.536C122.008 176.505 59.7797 184.61 29.7674 133.652C29.9447 133.703 23.689 125.37 32.1988 120.597Z" fill="#EA1B3C"/>
<path d="M53.6492 96.9108C54.8582 88.2757 59.0026 80.3158 65.3899 74.361C71.7773 68.4062 80.0208 64.8171 88.7431 64.1934C97.4655 63.5697 106.138 65.9491 113.313 70.9342C120.487 75.9193 125.728 83.208 128.161 91.5827C128.236 91.8307 128.363 92.0601 128.533 92.2558C128.703 92.4516 128.913 92.6095 129.148 92.719C129.38 92.8197 129.63 92.8713 129.883 92.8705C130.147 92.8752 130.408 92.8145 130.643 92.6938L153.437 81.8103C153.838 81.6179 154.153 81.2842 154.321 80.8738C154.489 80.4634 154.499 80.0054 154.349 79.5881C148.773 63.9476 137.544 50.9448 122.858 43.125C108.173 35.3051 91.0893 33.2311 74.951 37.3089C58.8128 41.3868 44.7819 51.323 35.6048 65.1725C26.4276 79.022 22.765 95.7878 25.3338 112.188C25.3784 112.48 25.4945 112.756 25.6718 112.992C25.8491 113.228 26.0821 113.417 26.3502 113.542C26.6182 113.667 26.913 113.724 27.2084 113.708C27.5038 113.692 27.7908 113.604 28.0438 113.451L52.7881 98.2997C53.0303 98.1511 53.2343 97.9482 53.3838 97.707C53.5333 97.4659 53.6242 97.1932 53.6492 96.9108Z" fill="#2F2F39"/>
<path d="M78.1999 12.2666H105.8C110.034 12.2666 113.467 15.6991 113.467 19.9333C113.467 24.1675 110.034 27.5999 105.8 27.5999L78.1999 27.5999C73.9657 27.5999 70.5332 24.1675 70.5332 19.9333C70.5332 15.6991 73.9657 12.2666 78.1999 12.2666Z" fill="#2F2F39"/>
<path d="M84.3333 58.2668V27.6001H99.6666V58.2668H84.3333Z" fill="#2F2F39"/>
<path d="M34.6638 25.3543L23.8215 36.1966C20.8275 39.1906 20.8275 44.0448 23.8215 47.0389C26.8155 50.0329 31.6698 50.0329 34.6638 47.0389L45.5061 36.1966C48.5001 33.2025 48.5001 28.3483 45.5061 25.3543C42.5121 22.3602 37.6578 22.3602 34.6638 25.3543Z" fill="#2F2F39"/>
<path d="M149.664 25.3543L160.507 36.1966C163.501 39.1906 163.501 44.0448 160.507 47.0389C157.513 50.0329 152.658 50.0329 149.664 47.0389L138.822 36.1966C135.828 33.2025 135.828 28.3483 138.822 25.3543C141.816 22.3602 146.67 22.3602 149.664 25.3543Z" fill="#2F2F39"/>
<path d="M237.952 140V65.76H212.352V50.4H280.96V65.76H254.592V140H237.952ZM296.383 140V72.544H312.127V140H296.383ZM304.063 58.208C300.906 58.208 298.431 57.44 296.639 55.904C294.932 54.2827 294.079 52.0213 294.079 49.12C294.079 46.3893 294.975 44.1707 296.767 42.464C298.559 40.7573 300.991 39.904 304.063 39.904C307.306 39.904 309.78 40.7147 311.487 42.336C313.279 43.872 314.175 46.1333 314.175 49.12C314.175 51.7653 313.279 53.9413 311.487 55.648C309.695 57.3547 307.22 58.208 304.063 58.208ZM331.835 140V72.544H347.323L347.579 86.112L345.019 87.136C345.787 84.9173 346.939 82.8693 348.475 80.992C350.011 79.0293 351.846 77.3653 353.979 76C356.112 74.5493 358.374 73.44 360.763 72.672C363.152 71.8187 365.584 71.392 368.059 71.392C371.728 71.392 374.971 71.9893 377.787 73.184C380.688 74.2933 383.078 76.0853 384.955 78.56C386.918 81.0347 388.368 84.192 389.307 88.032L386.875 87.52L387.899 85.472C388.838 83.424 390.16 81.5893 391.867 79.968C393.574 78.2613 395.494 76.768 397.627 75.488C399.76 74.1227 401.979 73.0987 404.283 72.416C406.672 71.7333 409.019 71.392 411.323 71.392C416.443 71.392 420.71 72.416 424.123 74.464C427.536 76.512 430.096 79.6267 431.803 83.808C433.51 87.9893 434.363 93.152 434.363 99.296V140H418.491V100.32C418.491 96.9067 418.022 94.0907 417.083 91.872C416.23 89.6533 414.864 88.032 412.987 87.008C411.195 85.8987 408.934 85.344 406.203 85.344C404.07 85.344 402.022 85.728 400.059 86.496C398.182 87.1787 396.56 88.2027 395.195 89.568C393.83 90.848 392.763 92.3413 391.995 94.048C391.227 95.7547 390.843 97.632 390.843 99.68V140H374.971V100.192C374.971 96.9493 374.502 94.2613 373.563 92.128C372.624 89.9093 371.259 88.2453 369.467 87.136C367.675 85.9413 365.499 85.344 362.939 85.344C360.806 85.344 358.8 85.728 356.923 86.496C355.046 87.1787 353.424 88.16 352.059 89.44C350.694 90.72 349.627 92.2133 348.859 93.92C348.091 95.6267 347.707 97.504 347.707 99.552V140H331.835ZM483.457 141.28C476.374 141.28 470.102 139.787 464.641 136.8C459.265 133.813 455.041 129.76 451.969 124.64C448.982 119.435 447.489 113.504 447.489 106.848C447.489 101.557 448.342 96.736 450.049 92.384C451.756 88.032 454.102 84.2773 457.089 81.12C460.161 77.8773 463.788 75.4027 467.969 73.696C472.236 71.904 476.886 71.008 481.921 71.008C486.358 71.008 490.497 71.8613 494.337 73.568C498.177 75.2747 501.505 77.6213 504.321 80.608C507.137 83.5093 509.27 87.008 510.721 91.104C512.257 95.1147 512.982 99.5093 512.897 104.288L512.769 109.792H458.113L455.169 99.04H499.585L497.537 101.216V98.4C497.281 95.7547 496.428 93.4507 494.977 91.488C493.526 89.44 491.649 87.8613 489.345 86.752C487.126 85.5573 484.652 84.96 481.921 84.96C477.74 84.96 474.198 85.7707 471.297 87.392C468.481 89.0133 466.348 91.36 464.897 94.432C463.446 97.4187 462.721 101.173 462.721 105.696C462.721 110.048 463.617 113.845 465.409 117.088C467.286 120.331 469.889 122.848 473.217 124.64C476.63 126.347 480.598 127.2 485.121 127.2C488.278 127.2 491.18 126.688 493.825 125.664C496.47 124.64 499.329 122.805 502.401 120.16L510.209 131.04C507.905 133.173 505.26 135.008 502.273 136.544C499.372 137.995 496.3 139.147 493.057 140C489.814 140.853 486.614 141.28 483.457 141.28ZM529.657 140V50.4H545.401L578.041 103.52L568.825 103.392L601.849 50.4H616.825V140H600.313V106.336C600.313 98.656 600.484 91.744 600.825 85.6C601.252 79.456 601.934 73.3547 602.873 67.296L604.921 72.8L577.145 115.68H568.697L541.817 73.184L543.609 67.296C544.548 73.0133 545.188 78.9013 545.529 84.96C545.956 90.9333 546.169 98.0587 546.169 106.336V140H529.657ZM663.563 141.28C658.016 141.28 652.982 139.744 648.459 136.672C643.936 133.6 640.31 129.419 637.579 124.128C634.848 118.837 633.483 112.821 633.483 106.08C633.483 99.3387 634.848 93.3227 637.579 88.032C640.31 82.7413 644.022 78.6027 648.715 75.616C653.408 72.6293 658.699 71.136 664.587 71.136C668 71.136 671.115 71.648 673.931 72.672C676.747 73.6107 679.222 74.976 681.355 76.768C683.488 78.56 685.238 80.608 686.603 82.912C688.054 85.216 689.035 87.6907 689.547 90.336L686.091 89.44V72.544H701.963V140H685.963V123.872L689.675 123.232C689.078 125.536 687.968 127.797 686.347 130.016C684.811 132.149 682.848 134.069 680.459 135.776C678.155 137.397 675.552 138.72 672.651 139.744C669.835 140.768 666.806 141.28 663.563 141.28ZM667.915 127.328C671.584 127.328 674.827 126.432 677.643 124.64C680.459 122.848 682.635 120.373 684.171 117.216C685.792 113.973 686.603 110.261 686.603 106.08C686.603 101.984 685.792 98.3573 684.171 95.2C682.635 92.0427 680.459 89.568 677.643 87.776C674.827 85.984 671.584 85.088 667.915 85.088C664.246 85.088 661.003 85.984 658.187 87.776C655.456 89.568 653.323 92.0427 651.787 95.2C650.251 98.3573 649.483 101.984 649.483 106.08C649.483 110.261 650.251 113.973 651.787 117.216C653.323 120.373 655.456 122.848 658.187 124.64C661.003 126.432 664.246 127.328 667.915 127.328ZM742.744 141.28C736.771 141.28 731.395 140.299 726.616 138.336C721.923 136.288 718.083 133.387 715.096 129.632L725.336 120.8C727.896 123.701 730.755 125.792 733.912 127.072C737.069 128.352 740.397 128.992 743.896 128.992C745.347 128.992 746.627 128.821 747.736 128.48C748.931 128.139 749.955 127.627 750.808 126.944C751.661 126.261 752.301 125.493 752.728 124.64C753.24 123.701 753.496 122.677 753.496 121.568C753.496 119.52 752.728 117.899 751.192 116.704C750.339 116.107 748.973 115.467 747.096 114.784C745.304 114.101 742.957 113.419 740.056 112.736C735.448 111.541 731.608 110.176 728.536 108.64C725.464 107.019 723.075 105.227 721.368 103.264C719.917 101.643 718.808 99.808 718.04 97.76C717.357 95.712 717.016 93.4933 717.016 91.104C717.016 88.1173 717.656 85.4293 718.936 83.04C720.301 80.5653 722.136 78.432 724.44 76.64C726.744 74.848 729.432 73.4827 732.504 72.544C735.576 71.6053 738.776 71.136 742.104 71.136C745.517 71.136 748.803 71.5627 751.96 72.416C755.203 73.2693 758.189 74.5067 760.92 76.128C763.736 77.664 766.125 79.5413 768.088 81.76L759.384 91.36C757.763 89.824 755.971 88.4587 754.008 87.264C752.131 86.0693 750.211 85.1307 748.248 84.448C746.285 83.68 744.451 83.296 742.744 83.296C741.123 83.296 739.672 83.4667 738.392 83.808C737.112 84.064 736.045 84.4907 735.192 85.088C734.339 85.6853 733.656 86.4533 733.144 87.392C732.717 88.2453 732.504 89.2693 732.504 90.464C732.589 91.488 732.845 92.4693 733.272 93.408C733.784 94.2613 734.467 94.9867 735.32 95.584C736.259 96.1813 737.667 96.864 739.544 97.632C741.421 98.4 743.853 99.1253 746.84 99.808C751.021 100.917 754.52 102.155 757.336 103.52C760.152 104.885 762.371 106.464 763.992 108.256C765.613 109.792 766.765 111.584 767.448 113.632C768.131 115.68 768.472 117.941 768.472 120.416C768.472 124.427 767.32 128.011 765.016 131.168C762.797 134.325 759.725 136.8 755.8 138.592C751.96 140.384 747.608 141.28 742.744 141.28ZM789.637 140V55.392H805.381V140H789.637ZM776.325 87.136V72.544H820.101V87.136H776.325ZM863.082 141.28C855.999 141.28 849.727 139.787 844.266 136.8C838.89 133.813 834.666 129.76 831.594 124.64C828.607 119.435 827.114 113.504 827.114 106.848C827.114 101.557 827.967 96.736 829.674 92.384C831.381 88.032 833.727 84.2773 836.714 81.12C839.786 77.8773 843.413 75.4027 847.594 73.696C851.861 71.904 856.511 71.008 861.546 71.008C865.983 71.008 870.122 71.8613 873.962 73.568C877.802 75.2747 881.13 77.6213 883.946 80.608C886.762 83.5093 888.895 87.008 890.346 91.104C891.882 95.1147 892.607 99.5093 892.522 104.288L892.394 109.792H837.738L834.794 99.04H879.21L877.162 101.216V98.4C876.906 95.7547 876.053 93.4507 874.602 91.488C873.151 89.44 871.274 87.8613 868.97 86.752C866.751 85.5573 864.277 84.96 861.546 84.96C857.365 84.96 853.823 85.7707 850.922 87.392C848.106 89.0133 845.973 91.36 844.522 94.432C843.071 97.4187 842.346 101.173 842.346 105.696C842.346 110.048 843.242 113.845 845.034 117.088C846.911 120.331 849.514 122.848 852.842 124.64C856.255 126.347 860.223 127.2 864.746 127.2C867.903 127.2 870.805 126.688 873.45 125.664C876.095 124.64 878.954 122.805 882.026 120.16L889.834 131.04C887.53 133.173 884.885 135.008 881.898 136.544C878.997 137.995 875.925 139.147 872.682 140C869.439 140.853 866.239 141.28 863.082 141.28ZM906.466 140V72.544H921.954L922.21 94.048L920.034 89.184C920.973 85.7707 922.594 82.6987 924.898 79.968C927.202 77.2373 929.847 75.104 932.834 73.568C935.906 71.9467 939.106 71.136 942.434 71.136C943.885 71.136 945.25 71.264 946.53 71.52C947.895 71.776 949.005 72.0747 949.858 72.416L945.634 89.696C944.695 89.184 943.543 88.7573 942.178 88.416C940.813 88.0747 939.447 87.904 938.082 87.904C935.949 87.904 933.901 88.3307 931.938 89.184C930.061 89.952 928.397 91.0613 926.946 92.512C925.495 93.9627 924.343 95.6693 923.49 97.632C922.722 99.5093 922.338 101.643 922.338 104.032V140H906.466Z" fill="#2F2F39"/>
</svg>
